<?xml version="1.0" encoding="UTF-8"?>
<svg width="501px" height="301px" viewBox="0 0 501 301" version="1.1" xmlns="http://www.w3.org/2000/svg" xmlns:xlink="http://www.w3.org/1999/xlink">
    <!-- Generator: Sketch 51.1 (57501) - http://www.bohemiancoding.com/sketch -->
    <title>Group 25</title>
    <desc>Created with Sketch.</desc>
    <defs></defs>
    <g id="Page-1" stroke="none" stroke-width="1" fill="none" fill-rule="evenodd">
        <g id="Group-25" transform="translate(0.000000, 1.000000)" fill-rule="nonzero">
            <rect id="Rectangle-25-Copy" fill="#6868F6" x="215.277778" y="0.996677741" width="12.8968254" height="299.003322"></rect>
            <rect id="Rectangle-25-Copy-3" fill="#8B79EC" x="172.619048" y="150.498339" width="12.8968254" height="149.501661"></rect>
            <rect id="Rectangle-25-Copy-4" fill="#A083E7" x="128.968254" y="200.332226" width="12.8968254" height="99.6677741"></rect>
            <rect id="Rectangle-25-Copy-5" fill="#B78FE2" x="86.3095238" y="225.249169" width="12.8968254" height="74.7508306"></rect>
            <rect id="Rectangle-25-Copy-6" fill="#CC98DC" x="42.6587302" y="240.199336" width="12.8968254" height="59.8006645"></rect>
            <rect id="Rectangle-25-Copy-2" fill="#E2A3D7" x="0" y="250.166113" width="12.8968254" height="49.833887"></rect>
            <path d="M260.912698,0 L260.912698,299.003322" id="Line-2" stroke="#5B606F" stroke-linecap="square"></path>
            <path d="M260.912698,299.003322 L500,299.003322" id="Line-3" stroke="#5B606F" stroke-linecap="square"></path>
            <g id="Group-23" transform="translate(275.793651, 28.903654)">
                <path d="M176.09127,151.993355 L206.845238,3.48837209" id="Line-16" stroke="#D9DFE8" stroke-linecap="square"></path>
                <path d="M5.45634921,250.664452 L46.1309524,241.694352" id="Line-12" stroke="#D9DFE8" stroke-linecap="square"></path>
                <path d="M46.1309524,241.694352 L89.781746,227.740864" id="Line-13" stroke="#D9DFE8" stroke-linecap="square"></path>
                <path d="M89.781746,227.740864 L131.448413,202.82392" id="Line-14" stroke="#D9DFE8" stroke-linecap="square"></path>
                <path d="M132.440476,201.827243 L176.09127,152.990033" id="Line-15" stroke="#D9DFE8" stroke-linecap="square"></path>
                <ellipse id="Oval-4" stroke="#5B606F" fill="#6868F6" cx="3.47222222" cy="251.66113" rx="3.47222222" ry="3.48837209"></ellipse>
                <ellipse id="Oval-4" stroke="#5B606F" fill="#6868F6" cx="46.1309524" cy="241.694352" rx="3.47222222" ry="3.48837209"></ellipse>
                <ellipse id="Oval-4" stroke="#5B606F" fill="#6868F6" cx="89.781746" cy="227.740864" rx="3.47222222" ry="3.48837209"></ellipse>
                <ellipse id="Oval-4" stroke="#5B606F" fill="#6868F6" cx="131.448413" cy="202.82392" rx="3.47222222" ry="3.48837209"></ellipse>
                <ellipse id="Oval-4" stroke="#5B606F" fill="#6868F6" cx="176.09127" cy="152.990033" rx="3.47222222" ry="3.48837209"></ellipse>
                <ellipse id="Oval-4" stroke="#5B606F" fill="#6868F6" cx="206.845238" cy="3.48837209" rx="3.47222222" ry="3.48837209"></ellipse>
            </g>
        </g>
    </g>
</svg>