<?xml version="1.0" encoding="UTF-8"?>
<svg width="238px" height="99px" viewBox="0 0 238 99" version="1.1" xmlns="http://www.w3.org/2000/svg" xmlns:xlink="http://www.w3.org/1999/xlink">
    <!-- Generator: Sketch 43.2 (39069) - http://www.bohemiancoding.com/sketch -->
    <title>Group 2</title>
    <desc>Created with Sketch.</desc>
    <defs>
        <linearGradient x1="100%" y1="50%" x2="0%" y2="50%" id="linearGradient-1">
            <stop stop-color="#D29BDB" offset="0%"></stop>
            <stop stop-color="#8B7AED" offset="100%"></stop>
        </linearGradient>
    </defs>
    <g id="Page-1" stroke="none" stroke-width="1" fill="none" fill-rule="evenodd">
        <g id="logo-studies" transform="translate(-34.000000, -227.000000)">
            <g id="Group-2" transform="translate(34.000000, 227.000000)">
                <path d="M5.171875,66.828125 L12.875,86.4677734 L12.9746094,86.4677734 L20.6777344,66.828125 L24.8613281,66.828125 L24.8613281,91 L21.5908203,91 L21.5908203,81.4375 L21.9228516,71.609375 L21.8398438,71.5927734 L14.0039063,91 L11.8291016,91 L4.02636719,71.6425781 L3.94335938,71.6591797 L4.25878906,81.4375 L4.25878906,91 L0.98828125,91 L0.98828125,66.828125 L5.171875,66.828125 Z M34.1353515,84.3427734 L34.7164062,86.6005859 L34.8160156,86.6005859 L39.2320312,73.0371094 L42.8677734,73.0371094 L35.3140625,93.7558594 C34.8602842,94.9622456 34.2100628,96.0136674 33.3633789,96.9101562 C32.516695,97.8066451 31.3739655,98.2548828 29.9351562,98.2548828 C29.6695299,98.2548828 29.3319682,98.2244469 28.9224609,98.1635742 C28.5129537,98.1027015 28.1975271,98.0445966 27.9761719,97.9892578 L28.3082031,95.4160156 C28.2417965,95.4049479 28.4382464,95.4160155 28.8975586,95.4492188 C29.3568708,95.482422 29.6473952,95.4990234 29.7691406,95.4990234 C30.4664097,95.4990234 31.036391,95.1891307 31.4791015,94.5693359 C31.9218121,93.9495412 32.2925766,93.2633501 32.5914062,92.5107422 L33.3716797,90.6347656 L26.6978515,73.0371094 L30.3501953,73.0371094 L34.1353515,84.3427734 Z M51.378125,91.3486328 C48.8768104,91.3486328 46.8874097,90.5157961 45.4098632,88.8500977 C43.9323168,87.1843992 43.1935546,85.0234508 43.1935546,82.3671875 L43.1935546,81.6367188 C43.1935546,79.0800653 43.954452,76.9523197 45.4762695,75.253418 C46.998087,73.5545162 48.7993385,72.7050781 50.8800781,72.7050781 C53.3039183,72.7050781 55.1356057,73.4355396 56.3751953,74.8964844 C57.6147848,76.3574292 58.2345703,78.3053264 58.2345703,80.7402344 L58.2345703,82.7822266 L46.5802734,82.7822266 L46.5304687,82.8652344 C46.563672,84.5918055 47.0008421,86.0112249 47.8419921,87.1235352 C48.6831422,88.2358454 49.8618413,88.7919922 51.378125,88.7919922 C52.4849013,88.7919922 53.456083,88.6342789 54.2916992,88.3188477 C55.1273153,88.0034164 55.8494761,87.5690132 56.4582031,87.015625 L57.7365234,89.140625 C57.0945931,89.7714875 56.2479219,90.2971984 55.1964843,90.7177734 C54.1450468,91.1383485 52.872273,91.3486328 51.378125,91.3486328 Z M50.8800781,75.2783203 C49.7843695,75.2783203 48.8491575,75.7403925 48.074414,76.6645508 C47.2996706,77.588709 46.8237639,78.7480399 46.6466796,80.1425781 L46.6798828,80.2255859 L54.9640625,80.2255859 L54.9640625,79.7939453 C54.9640625,78.5100847 54.6209669,77.4365278 53.9347656,76.5732422 C53.2485642,75.7099566 52.2303452,75.2783203 50.8800781,75.2783203 Z M68.8035156,75.9257812 L67.1267577,75.8261719 C66.2634722,75.8261719 65.5357776,76.0309224 64.9436523,76.4404297 C64.3515269,76.8499369 63.8949885,77.425452 63.5740234,78.1669922 L63.5740234,91 L60.3035156,91 L60.3035156,73.0371094 L63.2253906,73.0371094 L63.5408202,75.6601562 C64.0499374,74.7304641 64.6780235,74.0055365 65.4250976,73.4853516 C66.1721716,72.9651667 67.0326774,72.7050781 68.0066406,72.7050781 C68.2501314,72.7050781 68.4825509,72.7244464 68.7039062,72.7631836 C68.9252615,72.8019208 69.1078768,72.8434243 69.2517577,72.8876953 L68.8035156,75.9257812 Z M80.8001952,86.2353516 C80.8001952,85.5159469 80.5262722,84.9238304 79.9784179,84.4589844 C79.4305636,83.9941383 78.3929763,83.590171 76.8656249,83.2470703 C74.6852755,82.7711565 73.0445041,82.1264689 71.9432616,81.3129883 C70.8420191,80.4995077 70.2914062,79.389981 70.2914062,77.984375 C70.2914062,76.5234302 70.9111916,75.2783255 72.1507812,74.2490234 C73.3903707,73.2197214 75.0062399,72.7050781 76.9984374,72.7050781 C79.0902447,72.7050781 80.7531513,73.2418566 81.9872069,74.3154297 C83.2212626,75.3890028 83.8106122,76.6949793 83.7552733,78.2333984 L83.7220702,78.3330078 L80.6009765,78.3330078 C80.6009765,77.5471966 80.2717154,76.8416372 79.6131835,76.2163086 C78.9546516,75.5909799 78.0830782,75.2783203 76.9984374,75.2783203 C75.8363222,75.2783203 74.9730496,75.5328751 74.4085937,76.0419922 C73.8441377,76.5511093 73.561914,77.165361 73.561914,77.8847656 C73.561914,78.5931025 73.8109349,79.1520162 74.3089843,79.5615234 C74.8070336,79.9710307 75.8197188,80.3362614 77.3470702,80.6572266 C79.6159618,81.1442082 81.3037704,81.8054971 82.4105468,82.6411133 C83.5173231,83.4767294 84.070703,84.5973237 84.070703,86.0029297 C84.070703,87.5966877 83.4260155,88.8860628 82.136621,89.8710938 C80.8472265,90.8561247 79.1621848,91.3486328 77.0814452,91.3486328 C74.7904181,91.3486328 72.9863997,90.7675839 71.6693358,89.6054688 C70.352272,88.4433536 69.7269527,87.0875729 69.7933593,85.5380859 L69.8265624,85.4384766 L72.9476562,85.4384766 C73.002995,86.6005917 73.4346313,87.4500299 74.242578,87.9868164 C75.0505248,88.5236029 75.9968044,88.7919922 77.0814452,88.7919922 C78.2435604,88.7919922 79.1538703,88.5568057 79.8124022,88.0864258 C80.4709342,87.6160458 80.8001952,86.9990273 80.8001952,86.2353516 Z M94.0025389,91 L94.0025389,66.828125 L101.423437,66.828125 C104.588818,66.828125 107.128831,67.7993067 109.043555,69.7416992 C110.958278,71.6840917 111.915625,74.1936695 111.915625,77.2705078 L111.915625,80.5742188 C111.915625,83.6621248 110.958278,86.1717026 109.043555,88.1030273 C107.128831,90.0343521 104.588818,91 101.423437,91 L94.0025389,91 Z M97.2730467,69.4013672 L97.2730467,88.4433594 L101.423437,88.4433594 C103.659126,88.4433594 105.421641,87.7073641 106.711035,86.2353516 C108.000429,84.763339 108.645117,82.8763136 108.645117,80.5742188 L108.645117,77.2373047 C108.645117,74.9573454 108.000429,73.0813876 106.711035,71.609375 C105.421641,70.1373624 103.659126,69.4013672 101.423437,69.4013672 L97.2730467,69.4013672 Z M121.63789,91.3486328 C119.136576,91.3486328 117.147175,90.5157961 115.669629,88.8500977 C114.192082,87.1843992 113.45332,85.0234508 113.45332,82.3671875 L113.45332,81.6367188 C113.45332,79.0800653 114.214217,76.9523197 115.736035,75.253418 C117.257852,73.5545162 119.059104,72.7050781 121.139844,72.7050781 C123.563684,72.7050781 125.395371,73.4355396 126.634961,74.8964844 C127.87455,76.3574292 128.494336,78.3053264 128.494336,80.7402344 L128.494336,82.7822266 L116.840039,82.7822266 L116.790234,82.8652344 C116.823437,84.5918055 117.260608,86.0112249 118.101758,87.1235352 C118.942908,88.2358454 120.121607,88.7919922 121.63789,88.7919922 C122.744667,88.7919922 123.715849,88.6342789 124.551465,88.3188477 C125.387081,88.0034164 126.109242,87.5690132 126.717969,87.015625 L127.996289,89.140625 C127.354359,89.7714875 126.507687,90.2971984 125.45625,90.7177734 C124.404812,91.1383485 123.132039,91.3486328 121.63789,91.3486328 Z M121.139844,75.2783203 C120.044135,75.2783203 119.108923,75.7403925 118.33418,76.6645508 C117.559436,77.588709 117.083529,78.7480399 116.906445,80.1425781 L116.939648,80.2255859 L125.223828,80.2255859 L125.223828,79.7939453 C125.223828,78.5100847 124.880732,77.4365278 124.194531,76.5732422 C123.50833,75.7099566 122.490111,75.2783203 121.139844,75.2783203 Z M141.005664,86.2353516 C141.005664,85.5159469 140.731741,84.9238304 140.183887,84.4589844 C139.636032,83.9941383 138.598445,83.590171 137.071094,83.2470703 C134.890744,82.7711565 133.249973,82.1264689 132.14873,81.3129883 C131.047488,80.4995077 130.496875,79.389981 130.496875,77.984375 C130.496875,76.5234302 131.11666,75.2783255 132.35625,74.2490234 C133.595839,73.2197214 135.211709,72.7050781 137.203906,72.7050781 C139.295713,72.7050781 140.95862,73.2418566 142.192676,74.3154297 C143.426731,75.3890028 144.016081,76.6949793 143.960742,78.2333984 L143.927539,78.3330078 L140.806445,78.3330078 C140.806445,77.5471966 140.477184,76.8416372 139.818652,76.2163086 C139.16012,75.5909799 138.288547,75.2783203 137.203906,75.2783203 C136.041791,75.2783203 135.178518,75.5328751 134.614062,76.0419922 C134.049606,76.5511093 133.767383,77.165361 133.767383,77.8847656 C133.767383,78.5931025 134.016404,79.1520162 134.514453,79.5615234 C135.012502,79.9710307 136.025187,80.3362614 137.552539,80.6572266 C139.82143,81.1442082 141.509239,81.8054971 142.616015,82.6411133 C143.722792,83.4767294 144.276172,84.5973237 144.276172,86.0029297 C144.276172,87.5966877 143.631484,88.8860628 142.34209,89.8710938 C141.052695,90.8561247 139.367653,91.3486328 137.286914,91.3486328 C134.995887,91.3486328 133.191868,90.7675839 131.874804,89.6054688 C130.557741,88.4433536 129.932421,87.0875729 129.998828,85.5380859 L130.032031,85.4384766 L133.153125,85.4384766 C133.208464,86.6005917 133.6401,87.4500299 134.448047,87.9868164 C135.255993,88.5236029 136.202273,88.7919922 137.286914,88.7919922 C138.449029,88.7919922 139.359339,88.5568057 140.017871,88.0864258 C140.676403,87.6160458 141.005664,86.9990273 141.005664,86.2353516 Z M150.279687,91 L147.009179,91 L147.009179,73.0371094 L150.279687,73.0371094 L150.279687,91 Z M150.279687,68.4384766 L147.009179,68.4384766 L147.009179,65.1015625 L150.279687,65.1015625 L150.279687,68.4384766 Z M152.996094,82.3505859 C152.996094,79.4618996 153.626947,77.1321703 154.888672,75.3613281 C156.150397,73.5904859 157.893543,72.7050781 160.118164,72.7050781 C161.258143,72.7050781 162.259761,72.9347308 163.123047,73.394043 C163.986332,73.8533552 164.705726,74.5146441 165.28125,75.3779297 L165.679687,73.0371094 L168.286133,73.0371094 L168.286133,91.0996094 C168.286133,93.4017042 167.616543,95.1697529 166.277344,96.4038086 C164.938144,97.6378642 163.006848,98.2548828 160.483398,98.2548828 C159.620113,98.2548828 158.687668,98.1359061 157.686035,97.8979492 C156.684402,97.6599923 155.801761,97.3362651 155.038086,96.9267578 L155.868164,94.3867188 C156.454755,94.7187517 157.163082,94.9871409 157.993164,95.1918945 C158.823246,95.3966482 159.642248,95.4990234 160.450195,95.4990234 C162.043953,95.4990234 163.203284,95.1365596 163.928222,94.4116211 C164.653161,93.6866826 165.015625,92.5826897 165.015625,91.0996094 L165.015625,89.0742188 C164.429033,89.8268267 163.726241,90.3940411 162.907226,90.7758789 C162.088212,91.1577168 161.147466,91.3486328 160.084961,91.3486328 C157.882476,91.3486328 156.150397,90.5517658 154.888672,88.9580078 C153.626947,87.3642498 152.996094,85.2780077 152.996094,82.6992188 L152.996094,82.3505859 Z M156.266601,82.6992188 C156.266601,84.5032642 156.648433,85.9531195 157.412109,87.0488281 C158.175785,88.1445367 159.337883,88.6923828 160.898437,88.6923828 C161.883468,88.6923828 162.708004,88.468264 163.37207,88.0200195 C164.036136,87.5717751 164.583982,86.9381551 165.015625,86.1191406 L165.015625,77.8515625 C164.59505,77.0878868 164.047204,76.4819358 163.37207,76.0336914 C162.696936,75.585447 161.883468,75.3613281 160.93164,75.3613281 C159.371086,75.3613281 158.203454,76.0143164 157.428711,77.3203125 C156.653967,78.6263086 156.266601,80.3030497 156.266601,82.3505859 L156.266601,82.6992188 Z M174.356054,73.0371094 L174.588476,75.7099609 C175.186136,74.7581333 175.935965,74.0193711 176.837988,73.4936523 C177.740011,72.9679336 178.76653,72.7050781 179.917578,72.7050781 C181.854437,72.7050781 183.354096,73.2722925 184.416601,74.4067383 C185.479107,75.5411841 186.010351,77.2926314 186.010351,79.6611328 L186.010351,91 L182.739843,91 L182.739843,79.7275391 C182.739843,78.1448489 182.427184,77.0214877 181.801855,76.3574219 C181.176527,75.6933561 180.221946,75.3613281 178.938086,75.3613281 C177.997326,75.3613281 177.164489,75.5882139 176.439551,76.0419922 C175.714612,76.4957705 175.13633,77.115556 174.704687,77.9013672 L174.704687,91 L171.434179,91 L171.434179,73.0371094 L174.356054,73.0371094 Z M213.705859,83.2636719 L213.739062,83.3632812 C213.783333,85.6321728 212.986466,87.5302658 211.348437,89.0576172 C209.710408,90.5849686 207.546693,91.3486328 204.857226,91.3486328 C202.123489,91.3486328 199.896135,90.380218 198.175097,88.4433594 C196.45406,86.5065007 195.593554,84.0494941 195.593554,81.0722656 L195.593554,76.7724609 C195.593554,73.7952325 196.45406,71.3354589 198.175097,69.3930664 C199.896135,67.4506739 202.123489,66.4794922 204.857226,66.4794922 C207.590964,66.4794922 209.765747,67.2071867 211.38164,68.6625977 C212.997534,70.1180086 213.783333,72.0465375 213.739062,74.4482422 L213.705859,74.5478516 L210.568164,74.5478516 C210.568164,72.8544837 210.070122,71.5153044 209.074023,70.5302734 C208.077924,69.5452425 206.672339,69.0527344 204.857226,69.0527344 C203.031045,69.0527344 201.575656,69.7887296 200.491015,71.2607422 C199.406374,72.7327548 198.864062,74.5589084 198.864062,76.7392578 L198.864062,81.0722656 C198.864062,83.2747506 199.406374,85.1119718 200.491015,86.5839844 C201.575656,88.0559969 203.031045,88.7919922 204.857226,88.7919922 C206.672339,88.7919922 208.077924,88.302251 209.074023,87.3227539 C210.070122,86.3432568 210.568164,84.990243 210.568164,83.2636719 L213.705859,83.2636719 Z M215.177148,81.8525391 C215.177148,79.1962758 215.896542,77.0076583 217.335351,75.2866211 C218.774161,73.5655838 220.727591,72.7050781 223.195703,72.7050781 C225.68595,72.7050781 227.653215,73.5628169 229.097558,75.2783203 C230.541901,76.9938237 231.264062,79.185208 231.264062,81.8525391 L231.264062,82.2177734 C231.264062,84.8961722 230.544668,87.0875566 229.105859,88.7919922 C227.66705,90.4964278 225.708085,91.3486328 223.228906,91.3486328 C220.749727,91.3486328 218.787995,90.4936609 217.343652,88.7836914 C215.899309,87.0737219 215.177148,84.8851045 215.177148,82.2177734 L215.177148,81.8525391 Z M218.447656,82.2177734 C218.447656,84.1214288 218.848856,85.6930277 219.651269,86.9326172 C220.453682,88.1722067 221.646216,88.7919922 223.228906,88.7919922 C224.789461,88.7919922 225.973694,88.1722067 226.78164,86.9326172 C227.589587,85.6930277 227.993554,84.1214288 227.993554,82.2177734 L227.993554,81.8525391 C227.993554,79.9710192 227.58682,78.4049542 226.77334,77.1542969 C225.959859,75.9036396 224.767325,75.2783203 223.195703,75.2783203 C221.635148,75.2783203 220.453682,75.9036396 219.651269,77.1542969 C218.848856,78.4049542 218.447656,79.9710192 218.447656,81.8525391 L218.447656,82.2177734 Z M237.234375,91 L233.963867,91 L233.963867,87.6464844 L237.234375,87.6464844 L237.234375,91 Z" id="Myers-Design-Co." fill="#5B606F"></path>
                <path d="M11.3730402,0.928621153 L21.4738221,30.1419339 L21.6371771,30.1419339 L31.8196365,0.928621153 L42.2199026,0.928621153 L42.2199026,40.5694257 L34.269961,40.5694257 L34.269961,28.7534167 L35.0322841,11.2472097 L34.8689292,11.2199839 L24.2508565,40.5694257 L18.9145944,40.5694257 L8.35097337,11.3288872 L8.18761841,11.356113 L8.94994158,28.7534167 L8.94994158,40.5694257 L1,40.5694257 L1,0.928621153 L11.3730402,0.928621153 Z M109.541307,40.5694257 L109.541307,0.928621153 L123.15422,0.928621153 C128.000442,0.928621153 131.993523,2.4759402 135.133584,5.57062471 C138.273645,8.66530922 139.843652,12.6357027 139.843652,17.4819242 L139.843652,24.0433485 C139.843652,28.9077207 138.273645,32.8781141 135.133584,35.954648 C131.993523,39.0311819 128.000442,40.5694257 123.15422,40.5694257 L109.541307,40.5694257 Z M117.491248,7.0544323 L117.491248,34.4708404 L122.745833,34.4708404 C125.595484,34.4708404 127.827979,33.5088708 129.443386,31.5849027 C131.058794,29.6609346 131.866485,27.1471084 131.866485,24.0433485 L131.866485,17.4274725 C131.866485,14.360014 131.058794,11.8643381 129.443386,9.94036999 C127.827979,8.01640191 125.595484,7.0544323 122.745833,7.0544323 L117.491248,7.0544323 Z M235.888304,27.0926412 L235.942756,27.2559962 C236.015358,31.5213971 234.713069,34.9019035 232.03585,37.3976168 C229.35863,39.8933302 225.642342,41.1411681 220.886873,41.1411681 C216.113254,41.1411681 212.23815,39.6074618 209.261445,36.5400033 C206.28474,33.4725447 204.796409,29.5248392 204.796409,24.6967684 L204.796409,16.8285043 C204.796409,12.0185841 206.248439,8.07087861 209.152542,4.98526942 C212.056645,1.89966023 215.831922,0.356878779 220.478486,0.356878779 C225.379159,0.356878779 229.208887,1.6137919 231.967785,4.12765586 C234.726683,6.64151982 236.06981,10.0674022 235.997208,14.4054057 L235.942756,14.5687606 L228.210621,14.5687606 C228.210621,11.9550681 227.584433,9.95398985 226.332039,8.56546571 C225.079645,7.17694158 223.12848,6.48268992 220.478486,6.48268992 C218.100752,6.48268992 216.213113,7.44919713 214.815514,9.38224053 C213.417914,11.3152839 212.719125,13.7791967 212.719125,16.7740526 L212.719125,24.6967684 C212.719125,27.7279257 213.454215,30.2099888 214.924417,32.1430322 C216.394619,34.0760756 218.382085,35.0425828 220.886873,35.0425828 C223.373511,35.0425828 225.211236,34.3755567 226.400103,33.0414845 C227.58897,31.7074123 228.183395,29.7244843 228.183395,27.0926412 L235.888304,27.0926412 Z" id="MDC" fill="url(#linearGradient-1)"></path>
            </g>
        </g>
    </g>
</svg>